<svg id="Capa_1" enable-background="new 0 0 512 512" height="512" viewBox="0 0 512 512" width="512" xmlns="http://www.w3.org/2000/svg"><g><g id="Vision_1_"><g><path d="m256 391c-155.713 0-249.145-120.85-253.012-126.006-3.984-5.332-3.984-12.656 0-17.988 3.867-5.156 97.299-126.006 253.012-126.006s249.145 120.85 253.012 126.006c3.984 5.332 3.984 12.656 0 17.988-3.867 5.156-97.299 126.006-253.012 126.006z" fill="#e6f7ff"/></g><g><path d="m150.883 44.652c-8.027-2.109-16.23 2.593-18.398 10.605l-1.609 6.011-11.896-20.616c-4.131-7.163-13.301-9.668-20.479-5.493-7.178 4.146-9.639 13.315-5.479 20.493l11.896 20.614-6.037-1.615c-7.91-2.095-16.201 2.622-18.369 10.605-2.139 8.013 2.607 16.23 10.635 18.369l40.986 10.972c7.793 2.125 16.166-2.468 18.369-10.605l10.986-40.972c2.139-7.997-2.607-16.229-10.605-18.368z" fill="#61729b"/><path d="m431.488 85.258c-2.168-7.954-10.225-12.759-18.369-10.605l-6.037 1.615 11.896-20.614c4.16-7.178 1.699-16.348-5.479-20.493-7.119-4.116-16.348-1.685-20.479 5.493l-11.896 20.616-1.609-6.011c-2.168-8.013-10.254-12.744-18.398-10.605-7.998 2.139-12.744 10.371-10.605 18.369l10.986 40.972c2.202 8.133 10.572 12.732 18.369 10.605l40.986-10.972c8.028-2.14 12.774-10.357 10.635-18.37z" fill="#47568c"/><path d="m275.395 35.395-4.395 4.394v-24.789c0-8.291-6.709-15-15-15s-15 6.709-15 15v24.789l-4.395-4.395c-5.859-5.859-15.352-5.859-21.211 0s-5.859 15.352 0 21.211l30 30c2.93 2.93 6.768 4.395 10.606 4.395s7.676-1.465 10.605-4.395l30-30c5.859-5.859 5.859-15.352 0-21.211s-15.351-5.859-21.21.001z" fill="#61729b"/></g><g><path d="m420.854 408.373-40.986-10.972c-7.881-2.139-16.201 2.593-18.369 10.605l-10.986 40.972c-2.139 7.998 2.607 16.23 10.605 18.369 8.03 2.141 16.235-2.616 18.398-10.605l1.609-6.011 11.896 20.616c4.102 7.156 13.266 9.634 20.479 5.493 7.178-4.146 9.639-13.315 5.479-20.493l-11.896-20.614 6.037 1.615c7.939 2.227 16.201-2.593 18.369-10.605 2.138-8.014-2.608-16.231-10.635-18.37z" fill="#47568c"/><g fill="#61729b"><path d="m150.502 408.007c-2.139-7.983-10.313-12.759-18.369-10.605l-40.986 10.972c-8.027 2.139-12.773 10.356-10.635 18.369 2.168 7.969 10.283 12.861 18.369 10.605l6.037-1.615-11.896 20.614c-4.16 7.178-1.699 16.348 5.479 20.493 7.242 4.157 16.399 1.625 20.479-5.493l11.896-20.616 1.609 6.011c2.164 7.993 10.372 12.746 18.398 10.605 7.998-2.139 12.744-10.371 10.605-18.369z"/><path d="m266.605 425.395c-5.859-5.859-15.352-5.859-21.211 0l-30 30c-5.859 5.859-5.859 15.352 0 21.211s15.352 5.859 21.211 0l4.395-4.395v24.789c0 8.291 6.709 15 15 15s15-6.709 15-15v-24.789l4.395 4.395c5.859 5.859 15.351 5.86 21.211 0 5.859-5.859 5.859-15.352 0-21.211z"/></g></g></g><path d="m266.605 86.605 30-30c5.859-5.859 5.859-15.352 0-21.211s-15.352-5.859-21.211 0l-4.394 4.395v-24.789c0-8.291-6.709-15-15-15v91c3.838 0 7.676-1.465 10.605-4.395z" fill="#47568c"/><path d="m271 497v-24.789l4.395 4.395c5.859 5.859 15.352 5.859 21.211 0s5.859-15.352 0-21.211l-30-30c-2.93-2.93-6.768-4.395-10.605-4.395v91c8.29 0 14.999-6.709 14.999-15z" fill="#47568c"/><path d="m509.012 264.994c3.984-5.332 3.984-12.656 0-17.988-3.867-5.156-97.299-126.006-253.012-126.006v270c155.713 0 249.145-120.85 253.012-126.006z" fill="#cef"/><g><path d="m256 331c-57.891 0-105-47.109-105-105s47.109-105 105-105 105 47.109 105 105-47.109 105-105 105z" fill="#9ef"/></g><path d="m361 226c0-57.891-47.109-105-105-105v210c57.891 0 105-47.109 105-105z" fill="#80bfff"/><g><path d="m256 271c-24.814 0-45-20.186-45-45s20.186-45 45-45 45 20.186 45 45-20.186 45-45 45z" fill="#47568c"/></g><path d="m301 226c0-24.814-20.186-45-45-45v90c24.814 0 45-20.186 45-45z" fill="#29376d"/></g></svg>