<svg id="Capa_1" enable-background="new 0 0 512 512" height="512" viewBox="0 0 512 512" width="512" xmlns="http://www.w3.org/2000/svg"><g><path d="m256 61c-107.701 0-195 87.299-195 195 0 107.699 87.299 195 195 195s195-87.301 195-195c0-107.701-87.299-195-195-195zm0 360c-90.901 0-165-74.101-165-165 0-90.901 74.099-165 165-165s165 74.099 165 165c0 90.899-74.099 165-165 165z" fill="#5f55af"/><path d="m451 256c0 107.699-87.299 195-195 195v-30c90.901 0 165-74.101 165-165 0-90.901-74.099-165-165-165v-30c107.701 0 195 87.299 195 195z" fill="#453d83"/><path d="m256 151c-57.9 0-105 47.1-105 105s47.1 105 105 105 105-47.1 105-105-47.1-105-105-105z" fill="#7ed8f6"/><path d="m361 256c0 57.9-47.1 105-105 105v-210c57.9 0 105 47.1 105 105z" fill="#6aa9ff"/><path d="m226 91h-211c-8.291 0-15-6.709-15-15s6.709-15 15-15h211c8.291 0 15 6.709 15 15s-6.709 15-15 15z" fill="#5f55af"/><path d="m497 91h-211c-8.291 0-15-6.709-15-15s6.709-15 15-15h211c8.291 0 15 6.709 15 15s-6.709 15-15 15z" fill="#453d83"/><path d="m256 211c-24.901 0-45 20.099-45 45 0 24.899 20.099 45 45 45s45-20.101 45-45c0-24.901-20.099-45-45-45z" fill="#5f55af"/><path d="m301 256c0 24.899-20.099 45-45 45v-90c24.901 0 45 20.099 45 45z" fill="#453d83"/><circle cx="256" cy="256" fill="#edf5ff" r="15"/><path d="m271 256c0 8.399-6.599 15-15 15v-30c8.401 0 15 6.599 15 15z" fill="#d5e8fe"/><path d="m436 301c-24.814 0-45-20.186-45-45s20.186-45 45-45 45 20.186 45 45-20.186 45-45 45z" fill="#6aa9ff"/><g fill="#7ed8f6"><path d="m76 301c-24.814 0-45-20.186-45-45s20.186-45 45-45 45 20.186 45 45-20.186 45-45 45z"/><path d="m256 31c-24.901 0-45 20.099-45 45s20.099 45 45 45 45-20.099 45-45-20.099-45-45-45z"/><path d="m256 391c-24.901 0-45 20.099-45 45 0 24.899 20.099 45 45 45s45-20.101 45-45c0-24.901-20.099-45-45-45z"/></g><path d="m301 436c0 24.899-20.099 45-45 45v-90c24.901 0 45 20.099 45 45z" fill="#6aa9ff"/><path d="m256 121v-90c24.901 0 45 20.099 45 45s-20.099 45-45 45z" fill="#6aa9ff"/><path d="m15 121c-8.291 0-15-6.709-15-15v-60c0-8.291 6.709-15 15-15s15 6.709 15 15v60c0 8.291-6.709 15-15 15z" fill="#5f55af"/><path d="m497 121c-8.291 0-15-6.709-15-15v-60c0-8.291 6.709-15 15-15s15 6.709 15 15v60c0 8.291-6.709 15-15 15z" fill="#453d83"/></g></svg>